# xmcd
#
# Track frame offsets: 
#        150
#        23160
#        43230
#        70125
#        94312
#        109492
#        125787
#        142572
#        159417
#        173192
#        189910
#
# Disc length: 2816 seconds
#
# Revision: 16
# Processed by: cddbd v1.5.2PL0 Copyright (c) Steve Scherf et al.
# Submitted via: ExactAudioCopy v1.3
#
DISCID=950afe0b
DTITLE=Tracy Chapman - Where You Live
DYEAR=2005
DGENRE=Folk Rock
TTITLE0=Change
TTITLE1=Talk To You
TTITLE2=3000 Miles
TTITLE3=Going Back
TTITLE4=Don't Dwell
TTITLE5=Never Yours
TTITLE6=America
TTITLE7=Love's Proof
TTITLE8=Before Easter
TTITLE9=Taken
TTITLE10=Be And Be Not Afraid
EXTD=YEAR: 2005
EXTT0=
EXTT1=
EXTT2=
EXTT3=
EXTT4=
EXTT5=
EXTT6=
EXTT7=
EXTT8=
EXTT9=
EXTT10=
PLAYORDER=
